<svg xmlns="http://www.w3.org/2000/svg" width="1200" height="720" viewBox="0 0 1200 720"><title>Placeholder local: MEDICION DE HAZ</title><defs><linearGradient id="bg" x2="1" y2="1"><stop stop-color="#16283d"/><stop offset="1" stop-color="#335d72"/></linearGradient><pattern id="grid" width="60" height="60" patternUnits="userSpaceOnUse"><path d="M60 0H0V60" fill="none" stroke="#b1cbd8" stroke-opacity=".09"/></pattern></defs><path fill="url(#bg)" d="M0 0h1200v720H0z"/><path fill="url(#grid)" d="M0 0h1200v720H0z"/><g fill="none" stroke="#a8d2e6" stroke-opacity=".35" stroke-width="2"><rect x="430" y="130" width="340" height="380" rx="8"/><path d="M430 230h340M470 280h260M470 310h260M470 340h260M470 370h260M470 400h260M470 510v35M730 510v35M360 450h70M770 450h70"/><circle cx="490" cy="180" r="16"/><path d="M540 180h180M600 75v55M600 550v55"/></g><text x="600" y="465" text-anchor="middle" font-family="Arial,sans-serif" font-size="20" fill="#e0edf5" letter-spacing="2">MEDICION DE HAZ</text><text x="600" y="494" text-anchor="middle" font-family="Arial,sans-serif" font-size="14" fill="#cedce6" letter-spacing="1">IMAGEN PROVISIONAL - REEMPLAZAR</text></svg>
