<svg xmlns="http://www.w3.org/2000/svg" width="1200" height="720" viewBox="0 0 1200 720"><title>Placeholder local: MEDICA</title><defs><linearGradient id="bg" x2="1" y2="1"><stop stop-color="#16283d"/><stop offset="1" stop-color="#517484"/></linearGradient><pattern id="grid" width="60" height="60" patternUnits="userSpaceOnUse"><path d="M60 0H0V60" fill="none" stroke="#b1cbd8" stroke-opacity=".09"/></pattern></defs><path fill="url(#bg)" d="M0 0h1200v720H0z"/><path fill="url(#grid)" d="M0 0h1200v720H0z"/><g fill="none" stroke="#bdd8e4" stroke-opacity=".28" stroke-width="2"><path d="M220 440 540 255l400 170-320 190zM220 440v-90l320-185 400 170v90M540 165v90M620 615v-90M620 525 940 335M620 525 220 350"/><path d="M600 100v240m-20-20 20 20 20-20" stroke="#83d7ff" stroke-width="3"/><circle cx="600" cy="360" r="45"/><circle cx="600" cy="360" r="70"/></g><text x="40" y="655" font-family="Arial,sans-serif" font-size="22" fill="#e0edf5" letter-spacing="3">MEDICA</text><text x="40" y="688" font-family="Arial,sans-serif" font-size="14" fill="#cedce6" letter-spacing="2">IMAGEN PROVISIONAL · REEMPLAZAR</text></svg>
